<?xml version="1.0" standalone="no"?>
<!DOCTYPE svg PUBLIC "-//W3C//DTD SVG 20010904//EN"
 "http://www.w3.org/TR/2001/REC-SVG-20010904/DTD/svg10.dtd">
<svg version="1.0" xmlns="http://www.w3.org/2000/svg"
 width="4932.000000pt" height="2834.000000pt" viewBox="0 0 4932.000000 2834.000000"
 preserveAspectRatio="xMidYMid meet">

<g transform="translate(0.000000,2834.000000) scale(0.100000,-0.100000)"
fill="#000000" stroke="none">
<path d="M26280 23984 c-25 -9 -49 -20 -54 -25 -6 -5 -16 -9 -24 -9 -8 0 -60
-26 -115 -57 -303 -170 -510 -337 -743 -600 -80 -90 -103 -121 -205 -273 -81
-122 -217 -396 -233 -472 -4 -15 -16 -37 -28 -48 -21 -19 -34 -20 -314 -20
-254 0 -293 2 -305 16 -13 16 -47 101 -56 141 -3 12 -11 28 -19 34 -8 6 -14
16 -14 21 0 22 -74 175 -105 218 -18 25 -40 63 -49 84 -16 39 -49 87 -114 168
-18 23 -40 54 -48 70 -8 15 -18 28 -22 28 -4 0 -44 41 -87 91 -128 144 -383
357 -550 456 -33 20 -67 42 -75 49 -19 15 -159 86 -228 115 -127 53 -242 -9
-242 -132 0 -52 30 -107 75 -136 19 -13 39 -23 43 -23 16 0 207 -99 257 -134
28 -19 74 -48 103 -65 29 -17 61 -40 71 -50 10 -10 45 -38 77 -62 81 -59 277
-258 346 -349 31 -42 63 -82 72 -89 9 -7 16 -17 16 -22 0 -5 19 -37 42 -71 56
-82 178 -327 171 -345 -4 -9 -26 -13 -77 -13 -128 -1 -338 -68 -462 -149 -150
-98 -304 -269 -364 -406 -12 -27 -29 -66 -37 -85 -9 -19 -19 -53 -23 -75 -5
-22 -13 -67 -20 -100 -18 -90 -7 -321 20 -410 12 -38 27 -83 35 -100 7 -16 20
-46 28 -66 24 -59 122 -201 179 -259 92 -95 220 -186 308 -219 19 -7 49 -19
66 -27 17 -7 61 -19 98 -26 85 -16 95 -30 65 -96 -40 -86 -69 -157 -69 -169 0
-7 -13 -38 -29 -70 -16 -32 -36 -79 -45 -105 -9 -26 -39 -94 -67 -150 -28 -57
-59 -125 -70 -152 -35 -87 -59 -137 -180 -380 -66 -131 -135 -265 -154 -296
-19 -32 -35 -61 -35 -65 0 -3 -19 -39 -43 -78 -23 -40 -56 -99 -72 -132 -16
-33 -41 -78 -56 -100 -14 -22 -49 -78 -77 -125 -27 -47 -66 -109 -86 -139 -20
-29 -36 -57 -36 -61 0 -5 -30 -57 -66 -117 -76 -125 -234 -442 -234 -470 0
-10 -6 -27 -13 -38 -12 -17 -29 -59 -69 -167 -9 -25 -15 -28 -59 -28 -26 0
-60 -5 -76 -11 -15 -6 -82 -65 -148 -132 -264 -266 -595 -452 -1035 -581 -54
-16 -69 -19 -225 -50 -240 -47 -581 -66 -845 -46 -393 28 -646 116 -812 281
-112 112 -163 200 -207 354 -46 164 -40 442 15 665 27 110 69 251 84 285 5 11
21 58 37 104 l27 84 -25 46 c-36 64 -79 91 -144 91 -38 0 -60 -6 -79 -21 -29
-23 -80 -94 -89 -124 -3 -11 -22 -65 -41 -120 -99 -272 -145 -591 -125 -853
23 -297 138 -556 328 -742 107 -106 230 -179 436 -261 114 -45 359 -92 565
-108 241 -19 558 -9 755 25 50 8 119 19 155 24 96 13 338 72 400 97 8 4 33 12
55 19 256 78 641 292 820 456 34 31 55 36 55 12 0 -9 -11 -62 -25 -118 -39
-163 -64 -302 -76 -431 -6 -66 -15 -156 -19 -200 -18 -165 -6 -417 29 -665 18
-123 55 -303 67 -321 3 -6 14 -41 24 -78 10 -36 36 -113 59 -171 22 -58 41
-110 41 -115 0 -16 139 -285 171 -332 16 -23 29 -45 29 -50 0 -5 13 -24 29
-44 16 -19 43 -58 59 -86 41 -69 189 -251 281 -346 124 -128 227 -228 252
-244 13 -9 51 -42 84 -73 33 -32 110 -92 170 -133 61 -42 133 -92 160 -112 28
-20 286 -270 575 -555 288 -286 532 -520 541 -520 10 0 36 24 59 53 23 28 89
102 148 162 138 143 394 413 463 490 30 32 81 86 114 120 33 33 90 94 126 135
65 73 84 89 259 212 150 104 259 199 444 383 248 246 363 393 514 655 52 91
162 311 162 324 0 5 15 52 34 105 18 53 43 128 54 166 11 39 28 96 37 128 10
32 23 102 31 155 7 53 18 120 23 147 6 28 14 176 17 330 5 220 3 311 -10 425
-28 258 -90 570 -133 668 -8 18 -12 40 -9 48 6 15 36 20 36 5 0 -36 305 -273
473 -367 155 -87 513 -244 556 -244 8 0 40 -9 70 -19 68 -24 212 -58 301 -72
36 -5 88 -14 115 -19 82 -16 391 -39 527 -40 137 0 401 16 483 30 146 24 335
70 390 95 17 7 53 22 81 33 125 49 280 157 376 260 91 99 188 262 226 382 57
177 56 171 56 440 1 228 -2 266 -22 360 -44 202 -99 389 -144 488 -15 34 -28
66 -28 71 0 5 -18 25 -40 45 -35 31 -46 36 -91 36 -122 0 -188 -104 -143 -225
61 -164 120 -360 133 -440 5 -33 17 -103 25 -155 25 -152 20 -256 -23 -454
-69 -316 -323 -524 -741 -605 -287 -56 -734 -54 -1077 4 -197 33 -430 96 -538
145 -22 10 -83 37 -135 59 -232 101 -459 258 -640 443 -63 64 -128 122 -144
128 -46 17 -112 2 -147 -32 -24 -25 -32 -28 -44 -18 -8 7 -15 20 -15 30 0 10
-14 51 -31 91 -16 41 -37 92 -45 114 -28 77 -40 102 -150 322 -106 212 -129
253 -233 411 -40 61 -79 128 -119 207 -9 17 -35 59 -58 95 -37 59 -83 143
-250 468 -29 56 -62 115 -72 130 -11 15 -22 41 -26 57 -4 17 -13 37 -20 45 -7
8 -30 53 -51 100 -46 102 -116 246 -135 280 -8 14 -15 27 -15 30 -1 11 -59
146 -67 155 -4 5 -8 19 -8 31 0 13 -4 25 -9 29 -5 3 -24 42 -41 88 -18 45 -39
98 -47 117 -42 94 -61 159 -49 169 6 5 38 12 71 16 114 14 318 96 391 157 222
185 308 302 382 517 25 72 26 87 27 271 0 205 -7 251 -57 375 -69 170 -198
335 -343 437 -65 46 -202 118 -224 118 -9 0 -21 4 -26 9 -22 20 -157 45 -270
50 -113 6 -120 7 -123 28 -3 23 96 228 136 281 14 19 35 51 47 72 53 99 257
334 395 455 112 99 239 191 360 262 63 37 192 103 201 103 20 0 85 51 103 80
34 58 37 89 16 139 -36 82 -114 115 -200 85z m-2262 -1827 c35 -41 48 -385 22
-552 -6 -38 -15 -106 -20 -150 -5 -44 -15 -98 -23 -120 -8 -22 -17 -67 -21
-100 -4 -33 -16 -84 -27 -113 -10 -29 -19 -65 -19 -80 0 -16 -4 -32 -9 -37 -5
-6 -16 -39 -25 -74 -8 -36 -21 -68 -28 -73 -35 -22 -139 2 -258 59 -126 60
-237 168 -294 286 -62 127 -79 210 -70 342 20 298 196 512 494 601 88 27 260
33 278 11z m762 -2 c8 -10 10 -32 6 -67 -17 -138 -18 -378 -2 -469 9 -51 16
-113 16 -138 0 -25 9 -86 20 -136 11 -49 30 -133 41 -185 11 -52 31 -131 45
-176 29 -95 30 -130 7 -142 -10 -5 -167 -10 -349 -11 -303 -2 -333 -1 -348 15
-11 10 -16 26 -12 38 2 12 16 62 30 111 14 50 33 125 41 168 8 44 19 93 24
110 5 18 20 88 32 156 20 111 22 157 21 408 0 155 -3 287 -7 293 -4 6 -1 17 5
25 18 21 412 22 430 0z m605 1 c107 -17 154 -34 259 -95 296 -173 404 -555
244 -860 -104 -197 -289 -323 -520 -352 -86 -11 -102 -6 -111 34 -3 12 -18 67
-35 122 -29 96 -62 225 -83 330 -6 28 -15 66 -19 85 -5 19 -12 71 -16 115 -3
44 -10 116 -16 160 -19 159 -20 270 -4 320 9 25 16 60 16 78 0 18 7 43 16 55
14 20 24 22 97 22 45 0 123 -7 172 -14z m-347 -1639 c13 -16 64 -135 97 -227
24 -68 68 -173 85 -202 6 -10 10 -24 10 -33 0 -8 8 -29 18 -47 10 -18 29 -60
41 -93 26 -70 27 -72 215 -455 187 -379 333 -660 405 -780 31 -52 65 -113 76
-135 10 -22 30 -56 45 -75 15 -19 44 -66 65 -105 20 -38 48 -84 61 -102 31
-40 233 -438 264 -518 13 -33 38 -92 57 -131 18 -39 33 -79 33 -88 0 -9 4 -24
9 -34 27 -48 106 -293 150 -462 5 -19 14 -53 20 -75 22 -80 60 -293 78 -440
21 -174 24 -599 4 -700 -6 -33 -15 -89 -21 -125 -12 -87 -85 -372 -104 -408
-8 -16 -25 -58 -37 -93 -27 -77 -132 -290 -188 -379 -22 -36 -50 -83 -62 -104
-59 -110 -362 -446 -515 -573 -103 -85 -157 -128 -178 -142 -153 -105 -236
-169 -312 -244 -51 -49 -97 -88 -102 -86 -6 2 -21 19 -34 38 -13 19 -36 44
-51 55 -28 21 -39 21 -553 24 -500 2 -526 2 -561 -17 -54 -27 -73 -53 -81
-107 -4 -26 -12 -49 -19 -51 -6 -2 -63 46 -125 107 -62 61 -133 125 -158 142
-55 37 -226 162 -280 203 -136 104 -424 392 -505 504 -44 61 -235 351 -235
358 0 3 -22 50 -50 104 -53 104 -110 251 -140 364 -49 180 -73 285 -80 345 -4
36 -10 72 -13 80 -6 15 -19 233 -20 325 0 28 3 93 7 145 4 52 8 136 10 185 2
50 6 97 9 105 3 8 8 33 11 55 11 91 24 154 91 430 34 136 82 299 105 350 15
33 52 138 58 165 3 14 8 27 11 30 4 3 22 41 40 85 52 125 207 441 241 490 16
24 30 46 30 48 0 7 76 135 123 209 21 31 37 61 37 67 0 5 3 11 8 13 6 3 29 43
70 123 9 17 18 32 22 35 8 6 52 84 131 235 34 66 93 179 131 250 67 127 108
209 210 425 27 58 65 136 84 174 19 38 34 73 34 78 0 5 27 68 61 141 33 73 70
159 81 192 11 33 24 65 29 71 9 11 48 121 76 209 28 92 -15 85 508 85 369 0
465 -3 473 -13z m20 -7065 c2 -7 -5 -20 -16 -30 -10 -9 -77 -78 -147 -152
-269 -283 -288 -301 -306 -298 -24 4 -492 467 -486 481 7 18 949 17 955 -1z"/>
<path d="M23297 17930 c-61 -41 -84 -102 -63 -169 7 -25 28 -60 46 -78 l34
-33 1121 0 c958 0 1134 -2 1214 -15 307 -50 493 -307 442 -609 -34 -195 -170
-346 -371 -412 -51 -17 -133 -19 -1255 -24 -934 -4 -1205 -8 -1222 -17 -12 -7
-31 -13 -42 -13 -12 0 -29 -4 -39 -9 -9 -5 -46 -21 -82 -37 -277 -124 -452
-362 -496 -679 -45 -317 148 -677 446 -829 129 -66 289 -111 305 -86 7 12
1956 12 2540 0 318 -6 320 -6 364 41 29 31 45 110 32 152 -17 52 -68 93 -129
106 -37 8 -465 11 -1435 11 -1155 0 -1389 3 -1427 14 -87 27 -156 66 -228 129
-74 64 -104 112 -134 217 -42 149 -23 302 52 426 43 71 85 123 98 124 6 0 12
4 12 8 0 13 122 79 190 103 l65 22 1135 2 c1080 2 1243 5 1256 27 3 5 14 6 25
3 28 -9 166 40 245 87 121 72 233 182 295 291 49 85 79 148 94 201 16 54 35
180 37 236 0 37 -19 156 -37 224 -14 54 -23 78 -58 156 -17 38 -95 151 -131
189 -98 106 -254 200 -402 243 l-79 23 -1186 3 -1185 2 -47 -30z"/>
<path d="M18150 22308 c-112 -6 -135 -10 -250 -41 -180 -50 -362 -161 -460
-280 -14 -17 -39 -47 -56 -67 -55 -63 -120 -188 -159 -304 -24 -73 -41 -147
-65 -281 -11 -67 -11 -455 0 -575 12 -123 45 -343 60 -400 7 -25 16 -67 20
-95 18 -108 53 -227 98 -340 29 -71 118 -241 149 -285 110 -153 234 -283 365
-381 43 -32 81 -59 83 -59 3 0 28 -15 57 -34 75 -47 180 -99 278 -136 47 -18
89 -36 94 -41 6 -5 19 -9 31 -9 12 0 25 -4 31 -9 5 -5 36 -15 69 -24 33 -8 94
-24 135 -35 41 -10 102 -25 135 -31 33 -7 69 -15 80 -18 11 -2 52 -8 90 -13
39 -5 102 -14 140 -20 235 -34 850 -37 1160 -5 83 8 182 18 220 21 39 3 77 8
85 11 8 2 43 6 78 8 35 2 87 8 115 14 29 6 104 18 167 27 63 9 153 23 200 31
47 8 110 18 140 23 56 9 162 35 190 47 8 3 23 5 34 4 17 -3 97 14 291 59 44
10 91 21 105 24 14 2 95 22 180 45 85 22 175 45 200 51 25 6 74 20 110 30 36
10 90 25 120 34 30 8 87 24 125 36 39 11 102 30 140 41 115 33 177 68 202 114
28 50 29 94 3 146 -40 78 -122 104 -223 70 -233 -78 -746 -217 -1037 -281 -52
-12 -124 -28 -160 -36 -36 -9 -99 -22 -140 -30 -41 -8 -97 -19 -125 -24 -27
-6 -77 -15 -110 -21 -33 -5 -82 -14 -110 -19 -55 -11 -83 -15 -355 -53 -394
-56 -684 -77 -1045 -76 -579 0 -1021 82 -1365 254 -107 53 -273 160 -309 199
-14 14 -30 26 -36 26 -6 0 -21 14 -34 31 -12 16 -33 35 -47 41 -14 6 -23 17
-20 23 2 7 -4 18 -15 26 -10 7 -19 18 -19 24 0 7 -11 22 -24 34 -14 13 -40 53
-58 90 -18 36 -36 68 -40 69 -4 2 -8 12 -8 22 0 10 -4 22 -10 25 -5 3 -10 13
-10 22 0 8 -9 28 -21 45 -12 16 -19 32 -15 35 3 3 -2 19 -10 35 -8 16 -19 54
-24 84 -5 31 -16 69 -25 86 -8 17 -15 55 -15 84 0 29 -4 63 -9 76 -20 50 -23
66 -28 143 -2 44 -8 94 -13 110 -15 53 -20 126 -20 320 -2 277 34 460 123 628
61 116 212 248 327 285 106 35 134 42 171 42 22 0 61 5 86 11 85 22 290 -9
408 -61 41 -18 273 -113 445 -182 52 -20 103 -42 112 -48 10 -5 22 -10 28 -10
6 0 29 -9 53 -20 23 -10 78 -33 122 -50 76 -30 101 -41 185 -77 19 -8 63 -26
98 -39 34 -13 77 -30 95 -37 17 -8 59 -25 92 -38 33 -13 71 -29 85 -36 14 -7
28 -13 33 -13 4 0 29 -9 55 -21 26 -12 57 -25 70 -30 12 -5 32 -13 45 -19 12
-5 92 -37 177 -71 85 -34 187 -75 225 -91 39 -16 79 -33 90 -38 11 -4 36 -15
55 -23 19 -9 65 -27 103 -41 37 -14 83 -32 102 -41 69 -30 101 -43 170 -70 39
-15 94 -38 123 -51 29 -13 57 -24 62 -24 5 0 29 -9 52 -20 24 -10 84 -35 133
-55 128 -52 127 -51 165 -68 19 -9 60 -25 90 -36 30 -12 64 -25 75 -30 11 -5
45 -19 75 -31 30 -13 73 -31 95 -40 22 -9 72 -29 110 -45 87 -34 98 -39 160
-65 28 -12 79 -33 115 -46 36 -14 83 -34 105 -44 22 -9 72 -30 110 -45 89 -34
102 -40 145 -58 19 -8 82 -34 140 -57 58 -23 124 -50 147 -61 24 -10 46 -19
49 -19 6 0 73 -28 171 -71 50 -22 65 -23 81 -7 10 10 15 10 21 -1 8 -12 14
-12 39 -2 39 16 67 47 87 93 20 50 19 83 -5 127 -25 44 -63 69 -155 105 -38
15 -79 31 -90 36 -11 5 -49 21 -85 36 -36 14 -78 32 -95 39 -51 23 -145 61
-280 115 -71 29 -143 58 -160 66 -16 7 -66 27 -110 44 -44 18 -93 38 -110 45
-27 13 -249 103 -435 177 -41 17 -99 41 -128 54 -29 13 -55 24 -57 24 -3 0
-58 22 -123 49 -228 95 -638 261 -645 261 -3 0 -37 14 -74 31 -37 17 -77 35
-88 39 -11 4 -58 23 -105 43 -47 19 -105 43 -130 52 -25 9 -58 23 -75 30 -45
20 -194 81 -332 136 -67 27 -143 57 -167 69 -25 11 -47 20 -51 20 -3 0 -60 23
-128 50 -125 52 -136 57 -197 83 -19 9 -82 34 -140 57 -58 22 -118 47 -135 55
-33 15 -177 74 -270 110 -80 31 -322 132 -361 150 -93 43 -286 65 -484 53z"/>
<path d="M30900 22313 c-128 -6 -206 -25 -375 -93 -162 -64 -365 -147 -430
-175 -16 -7 -73 -29 -125 -50 -52 -21 -108 -43 -125 -50 -16 -7 -93 -39 -170
-70 -77 -31 -153 -63 -170 -70 -16 -8 -59 -25 -95 -40 -36 -14 -74 -30 -85
-35 -11 -5 -42 -18 -70 -29 -27 -10 -100 -40 -162 -65 -62 -25 -115 -46 -117
-46 -3 0 -47 -18 -98 -39 -51 -22 -149 -63 -218 -91 -69 -28 -138 -58 -155
-65 -16 -7 -71 -29 -122 -49 -50 -19 -108 -43 -130 -52 -21 -9 -47 -21 -58
-25 -11 -5 -92 -38 -180 -73 -88 -35 -315 -128 -505 -206 -190 -78 -415 -170
-500 -205 -85 -34 -234 -95 -330 -135 -96 -40 -195 -80 -220 -90 -25 -10 -97
-39 -160 -65 -63 -26 -133 -54 -154 -62 -22 -8 -58 -22 -80 -32 -23 -11 -64
-29 -92 -41 -79 -33 -114 -80 -114 -155 0 -50 33 -112 76 -140 25 -16 124 -21
139 -6 6 5 42 21 80 36 39 14 95 37 125 50 107 45 501 205 507 205 3 0 29 11
57 25 28 13 83 36 121 51 39 14 74 30 80 35 5 5 16 9 25 9 9 0 33 9 55 20 22
11 44 20 49 20 5 0 28 9 50 19 23 10 82 36 131 56 50 20 104 43 120 50 17 8
48 20 70 28 42 15 206 81 240 97 18 8 58 24 200 82 28 12 64 27 80 34 17 7 77
31 135 54 58 23 119 48 135 55 17 8 89 37 160 65 72 28 144 57 160 65 17 7 55
23 85 35 30 12 73 30 96 41 22 10 47 19 55 19 8 0 19 4 25 9 5 5 51 26 102 46
51 19 101 40 110 45 9 4 85 36 169 69 84 34 165 66 180 73 15 6 48 19 73 28
59 23 387 157 425 174 17 8 55 24 85 36 30 12 69 28 85 35 28 13 112 46 160
65 11 4 41 17 67 28 26 12 91 38 145 58 54 20 103 40 108 44 6 4 28 13 50 20
22 7 45 17 51 22 37 29 296 41 429 20 75 -11 178 -44 200 -64 5 -4 16 -8 25
-8 27 0 146 -96 199 -160 62 -74 105 -156 138 -264 38 -124 45 -182 50 -425 3
-180 1 -247 -13 -335 -9 -61 -20 -136 -24 -166 -19 -139 -83 -413 -102 -434
-4 -6 -8 -19 -8 -29 0 -45 -131 -287 -202 -373 -140 -171 -363 -320 -628 -421
-94 -35 -123 -45 -267 -83 -227 -60 -612 -100 -973 -100 -312 0 -826 45 -1150
99 -30 6 -89 15 -130 21 -41 6 -95 15 -120 21 -25 5 -108 21 -185 34 -138 25
-263 52 -380 82 -33 8 -80 19 -105 23 -54 10 -438 109 -565 145 -49 14 -117
33 -150 42 -33 8 -64 19 -70 24 -5 5 -17 9 -26 9 -9 0 -60 14 -114 30 -54 17
-113 30 -132 30 -78 0 -153 -74 -153 -153 0 -46 37 -113 75 -136 16 -11 75
-34 130 -52 55 -18 109 -36 120 -40 11 -4 81 -24 155 -44 74 -20 143 -41 152
-46 10 -5 26 -9 36 -9 10 0 45 -8 78 -18 32 -11 84 -24 114 -31 30 -7 75 -18
100 -26 25 -7 70 -18 100 -24 100 -22 225 -52 255 -61 17 -5 59 -14 95 -19 36
-6 91 -18 123 -26 32 -8 68 -15 79 -15 12 0 35 -4 52 -9 51 -16 138 -32 191
-35 28 -2 57 -6 65 -9 47 -16 264 -49 520 -77 47 -5 123 -14 170 -20 355 -41
1057 -36 1325 10 28 5 95 16 150 25 177 28 210 35 360 78 179 51 406 148 534
229 88 55 181 127 181 139 0 16 27 39 44 39 21 0 164 142 176 175 5 14 15 25
23 25 12 0 91 112 133 190 10 19 22 37 27 38 4 2 7 8 7 13 0 5 15 41 34 81 47
102 105 282 121 373 4 22 10 58 15 80 46 236 59 330 72 525 25 391 -13 659
-129 899 -56 116 -145 240 -212 296 -13 11 -33 29 -45 40 -59 57 -252 154
-364 185 -129 34 -283 50 -432 43z"/>
<path d="M28115 11414 c-60 -75 -135 -166 -165 -203 -30 -38 -179 -218 -330
-402 -150 -184 -328 -400 -394 -481 -66 -82 -123 -148 -128 -148 -4 0 -8 65
-8 145 l0 145 -260 0 -260 0 0 455 0 455 -345 0 -345 0 0 -455 0 -455 -405 0
-405 0 0 -1240 0 -1240 53 0 c69 0 544 18 665 25 l92 5 0 -549 0 -549 -117
-12 c-490 -52 -703 -76 -707 -81 -6 -5 33 -671 39 -677 1 -1 357 36 790 83
433 47 799 85 814 83 25 -3 26 -7 33 -77 4 -41 10 -76 13 -79 4 -5 448 63 486
74 13 4 14 14 8 67 -9 69 -56 454 -124 1016 -25 206 -47 376 -49 378 -6 6
-477 -44 -484 -51 -2 -3 11 -146 30 -318 19 -172 32 -316 29 -319 -3 -4 -34
-10 -68 -14 l-63 -7 0 525 0 524 78 7 c42 3 173 9 290 12 l212 7 0 548 c0 484
4 588 22 540 2 -5 21 -29 43 -53 61 -65 277 -309 308 -346 l27 -34 0 -284 0
-284 380 0 380 0 0 -104 0 -104 -377 -1 -378 -1 -3 -290 -2 -290 380 0 380 0
0 -114 0 -114 -87 -6 c-49 -3 -194 -11 -323 -17 -402 -18 -547 -26 -557 -32
-7 -5 25 -546 33 -556 2 -2 205 5 452 18 246 12 455 21 464 21 16 0 18 -19 20
-222 l3 -223 503 -3 502 -2 0 255 0 255 23 0 c30 -1 891 42 894 44 3 3 -38
560 -41 563 -3 3 -691 -33 -803 -42 l-73 -6 0 91 0 90 340 0 340 0 -2 290 -3
291 -335 2 -335 2 -3 103 -3 102 341 0 340 0 0 255 c0 140 2 255 5 255 3 0 28
-11 55 -25 l49 -25 55 103 c30 56 108 205 174 330 l120 228 -181 90 c-169 85
-909 460 -915 464 -1 1 109 82 245 180 326 235 678 489 679 489 4 3 -34 498
-39 502 -3 3 -324 -6 -712 -21 -389 -14 -709 -25 -711 -23 -2 3 19 31 46 63
28 33 50 62 50 65 0 3 -79 64 -176 135 -97 72 -239 176 -314 233 -75 56 -139
102 -141 102 -2 -1 -53 -62 -114 -136z m830 -1003 c-6 -4 -85 -58 -177 -120
l-167 -112 -168 87 c-92 48 -170 89 -172 91 -3 2 2 10 10 18 11 11 76 18 274
28 323 18 412 19 400 8z m-1805 -437 c64 -57 464 -384 469 -384 3 0 42 43 86
95 44 52 84 95 90 95 5 0 36 -15 67 -33 l58 -33 -398 -266 c-218 -146 -403
-268 -409 -272 -10 -6 -13 80 -13 414 0 333 3 420 12 413 7 -4 24 -17 38 -29z
m-1190 -729 l0 -625 -70 0 -70 0 0 625 0 625 70 0 70 0 0 -625z m670 15 l0
-610 -24 0 c-13 0 -44 -3 -70 -6 l-46 -7 0 617 0 616 70 0 70 0 0 -610z m2472
-154 l137 -71 -487 -5 -487 -5 -3 -147 -3 -148 -241 0 c-207 0 -240 2 -228 14
8 8 182 132 385 277 204 144 390 277 415 295 l45 33 165 -86 c91 -47 227 -118
302 -157z m366 -190 c97 -51 214 -112 260 -135 45 -24 82 -45 82 -47 0 -2
-121 -4 -270 -4 l-270 0 0 140 c0 87 4 140 10 140 6 0 90 -42 188 -94z"/>
<path d="M22751 11474 c-288 -18 -526 -36 -528 -38 -3 -2 4 -145 15 -318 11
-172 17 -316 14 -319 -4 -3 -108 -12 -232 -18 -124 -7 -258 -15 -299 -18 l-74
-6 7 -131 c9 -175 36 -600 39 -602 1 -1 137 11 302 26 165 15 302 26 304 24 9
-8 37 -519 29 -525 -5 -3 -178 -18 -386 -33 -207 -16 -380 -31 -384 -35 -3 -3
3 -157 15 -341 21 -319 23 -335 42 -338 11 -1 441 31 955 73 514 41 1081 86
1260 100 179 14 340 28 359 31 l33 5 -6 67 c-3 37 -15 186 -27 332 -12 146
-23 267 -25 269 -2 2 -155 -8 -341 -23 -186 -14 -352 -26 -369 -26 l-31 0 -12
213 c-6 116 -15 239 -18 273 l-5 61 33 5 c19 3 150 16 291 29 142 12 262 25
268 29 9 5 -4 222 -36 588 l-7 72 -31 -1 c-17 0 -149 -8 -293 -17 l-262 -17
-5 50 c-7 63 -36 521 -36 563 0 24 -4 32 -17 31 -10 -1 -254 -17 -542 -35z"/>
<path d="M20765 11284 c-192 -12 -359 -23 -369 -23 -18 -1 -19 -8 -12 -138 4
-76 9 -159 12 -184 l6 -45 -168 -11 c-93 -6 -170 -10 -172 -8 -1 1 -8 83 -14
181 -6 99 -11 180 -12 181 -3 4 -908 -56 -913 -61 -3 -3 0 -82 6 -176 6 -94 9
-175 6 -180 -3 -4 -71 -11 -151 -15 l-146 -8 6 -66 c3 -36 13 -190 22 -341 9
-151 18 -277 19 -278 2 -2 68 0 147 5 79 5 145 6 148 2 3 -4 16 -180 29 -391
12 -211 25 -385 27 -387 3 -3 154 4 337 16 183 11 334 19 336 17 2 -2 6 -44 9
-93 l5 -90 -34 -5 c-19 -3 -209 -15 -422 -28 l-389 -22 6 -71 c3 -38 27 -403
52 -810 25 -407 47 -742 49 -743 2 -2 189 12 417 31 227 19 416 31 419 28 4
-3 9 -52 12 -108 l5 -102 -41 -6 c-23 -3 -246 -25 -495 -49 -249 -24 -455 -46
-456 -48 -2 -1 7 -106 20 -233 13 -126 26 -269 30 -316 3 -48 10 -92 14 -99 6
-10 108 -3 485 35 262 26 478 45 480 43 2 -2 13 -143 24 -312 12 -170 22 -310
23 -312 6 -6 833 49 841 56 5 4 -1 153 -12 331 -11 177 -18 325 -16 327 8 8
685 75 692 69 3 -4 14 -159 22 -345 l16 -337 25 2 c66 7 1918 189 2298 227
238 24 434 45 436 47 5 5 -62 721 -68 727 -3 2 -172 -15 -376 -38 -205 -23
-374 -40 -376 -38 -7 8 -52 553 -45 559 3 4 142 18 308 31 167 14 305 27 307
29 3 4 -34 661 -38 666 -1 1 -143 -9 -316 -22 -173 -12 -316 -22 -318 -21 -1
2 -9 95 -17 207 -8 112 -18 227 -20 254 l-6 51 -527 -44 c-290 -25 -529 -46
-531 -48 -2 -1 4 -112 12 -246 8 -134 14 -244 13 -245 -2 -2 -148 -12 -327
-23 -178 -11 -348 -23 -377 -26 -53 -6 -53 -6 -48 -37 3 -18 10 -173 17 -344
l12 -313 31 1 c17 0 189 13 381 28 193 15 351 27 352 26 4 -2 41 -589 38 -593
-8 -9 -850 -90 -855 -82 -3 5 -19 143 -35 307 -16 164 -31 301 -34 305 -3 4
-158 -9 -344 -28 -186 -20 -341 -34 -344 -31 -2 3 -7 50 -10 104 l-6 99 319
28 c176 16 321 30 323 32 4 4 -89 1556 -94 1562 -2 2 -146 -6 -321 -17 -175
-11 -321 -17 -324 -15 -6 6 -14 184 -8 184 1 1 128 9 281 19 152 10 280 20
283 24 3 3 -3 158 -15 344 -12 186 -21 361 -21 389 l0 51 83 6 c45 4 104 7
130 7 l49 0 -6 73 c-9 102 -36 545 -36 586 l0 33 -133 -7 -134 -7 -6 91 c-4
50 -10 132 -13 181 l-7 90 -56 -1 c-31 -1 -213 -12 -406 -25z m-321 -1136 c3
-29 6 -76 6 -105 l0 -51 -92 -6 c-51 -4 -127 -8 -168 -9 l-75 -2 -7 100 c-3
55 -4 102 -1 105 5 6 144 16 254 18 l76 2 7 -52z m557 -1495 c0 -21 6 -121 12
-221 7 -101 10 -185 7 -187 -3 -2 -45 -7 -93 -11 -78 -6 -87 -5 -87 10 0 22
-18 293 -25 373 l-5 62 32 4 c18 2 61 5 96 5 l62 2 1 -37z m-1040 -45 c0 -13
6 -117 13 -233 8 -115 11 -213 7 -217 -3 -3 -49 -8 -101 -10 l-95 -3 -12 175
c-6 96 -12 203 -12 237 l-1 62 73 4 c39 1 84 4 100 5 22 2 27 -2 28 -20z"/>
<path d="M18200 4493 l0 -938 92 3 c51 2 374 16 718 30 l625 27 3 380 2 380
-75 83 c-41 45 -75 86 -75 91 0 4 34 35 75 67 l75 59 0 377 0 378 -720 0 -720
0 0 -937z m1036 405 c-3 -117 -6 -216 -6 -220 0 -5 -97 -8 -215 -8 l-215 0 0
220 0 220 221 0 221 0 -6 -212z m-6 -762 l0 -214 -102 -6 c-57 -3 -154 -8
-215 -12 l-113 -6 0 226 0 226 215 0 215 0 0 -214z"/>
<path d="M23030 4890 l0 -540 520 0 520 0 0 -217 0 -218 -387 16 c-214 9 -448
20 -521 23 l-132 7 2 -173 3 -173 160 -7 c88 -3 385 -16 660 -27 275 -11 526
-23 558 -25 l57 -4 0 559 0 559 -415 0 -415 0 0 220 0 220 215 0 215 0 0 -60
0 -60 200 0 200 0 0 220 0 220 -720 0 -720 0 0 -540z"/>
<path d="M24620 4490 l0 -940 303 2 302 3 3 491 2 492 178 6 c97 4 198 9 225
12 l47 6 0 -506 0 -506 200 0 200 0 0 670 0 670 -72 0 c-40 0 -208 -7 -373
-15 -165 -8 -324 -15 -352 -15 l-53 0 0 285 0 285 -305 0 -305 0 0 -940z"/>
<path d="M19795 4878 c-3 -7 -4 -308 -3 -668 l3 -655 55 2 c887 36 1321 55
1348 59 l32 5 0 160 0 159 -52 -5 c-29 -3 -181 -9 -338 -15 -157 -6 -320 -13
-362 -16 l-78 -6 0 121 0 121 410 0 410 0 -2 373 -3 372 -708 3 c-561 2 -709
0 -712 -10z m1103 -360 l3 -108 -251 0 -250 0 0 110 0 110 248 -2 247 -3 3
-107z"/>
<path d="M21410 4865 c-2 -665 2 -1300 7 -1305 5 -4 127 -1 273 6 146 6 460
20 698 30 238 10 438 22 445 26 13 8 21 305 9 311 -6 4 -470 -14 -724 -27
l-108 -6 0 120 0 120 410 0 410 0 0 375 0 375 -710 0 -710 0 0 -25z m1100
-345 l0 -110 -250 0 -250 0 0 103 c0 57 3 107 7 110 3 4 116 7 250 7 l243 0 0
-110z"/>
<path d="M26240 4220 l0 -670 53 5 c28 3 333 16 677 30 344 15 644 28 668 31
l42 5 0 635 0 634 -720 0 -720 0 0 -670z m1040 26 l0 -324 -137 -6 c-76 -4
-174 -8 -218 -9 l-80 -2 -3 333 -2 332 220 0 220 0 0 -324z"/>
<path d="M27840 4226 c0 -366 3 -667 8 -669 4 -2 131 1 282 8 151 7 457 21
680 30 223 9 420 19 438 21 l32 5 0 159 0 160 -57 -5 c-32 -3 -184 -9 -338
-15 -154 -6 -315 -13 -357 -16 l-78 -6 0 121 0 121 405 0 405 0 2 365 c2 201
2 370 0 375 -3 7 -251 10 -713 10 l-709 0 0 -664z m1104 294 l1 -105 -247 -3
-248 -2 0 110 0 110 247 -2 246 -3 1 -105z"/>
<path d="M29470 4485 l0 -405 520 0 520 0 0 -80 0 -80 -63 0 c-73 0 -723 26
-874 35 l-103 6 0 -170 c0 -94 1 -171 3 -172 10 -4 1424 -65 1430 -62 4 2 7
193 7 424 l0 419 -415 0 -415 0 0 90 0 90 213 -2 212 -3 3 -37 3 -38 200 0
199 0 0 195 0 195 -720 0 -720 0 0 -405z"/>
</g>
</svg>
